G04 Generated by Ultiboard 14.1 *
%FSLAX24Y24*%
%MOIN*%

%ADD10C,0.0001*%
%ADD11R,0.0490X0.0490*%
%ADD12C,0.0490*%
%ADD13R,0.0731X0.0731*%
%ADD14C,0.0731*%
%ADD15R,0.0534X0.0534*%
%ADD16C,0.0534*%
%ADD17R,0.1124X0.1124*%
%ADD18C,0.1206*%
%ADD19C,0.1681*%


G04 ColorRGB FF00CC for the following layer *
%LNSolder Mask Top*%
%LPD*%
G54D10*
G54D11*
X22920Y9460D03*
X4780Y4990D03*
X10280Y4990D03*
X15780Y4990D03*
X21280Y4990D03*
X26780Y4990D03*
G54D12*
X23920Y9460D03*
X24920Y9460D03*
X25920Y9460D03*
X26920Y9460D03*
X27920Y9460D03*
X28920Y9460D03*
X29920Y9460D03*
X22920Y12558D03*
X23920Y12558D03*
X24920Y12558D03*
X25920Y12558D03*
X26920Y12558D03*
X27920Y12558D03*
X28920Y12558D03*
X29920Y12558D03*
X5780Y4990D03*
X6780Y4990D03*
X7780Y4990D03*
X5280Y5990D03*
X6280Y5990D03*
X7280Y5990D03*
X8280Y5990D03*
X11280Y4990D03*
X12280Y4990D03*
X13280Y4990D03*
X10780Y5990D03*
X11780Y5990D03*
X12780Y5990D03*
X13780Y5990D03*
X16780Y4990D03*
X17780Y4990D03*
X18780Y4990D03*
X16280Y5990D03*
X17280Y5990D03*
X18280Y5990D03*
X19280Y5990D03*
X22280Y4990D03*
X23280Y4990D03*
X24280Y4990D03*
X21780Y5990D03*
X22780Y5990D03*
X23780Y5990D03*
X24780Y5990D03*
X27780Y4990D03*
X28780Y4990D03*
X29780Y4990D03*
X27280Y5990D03*
X28280Y5990D03*
X29280Y5990D03*
X30280Y5990D03*
G54D13*
X10920Y14010D03*
G54D14*
X10920Y12010D03*
X18920Y9010D03*
X18920Y17010D03*
X10920Y17010D03*
G54D15*
X6110Y14860D03*
X23580Y15040D03*
G54D16*
X6110Y16829D03*
X23580Y17009D03*
G54D17*
X2144Y8228D03*
X2144Y11772D03*
G54D18*
X2538Y10000D03*
G54D19*
X4900Y10000D03*

M02*
