G04 Generated by Ultiboard 14.1 *
%FSLAX24Y24*%
%MOIN*%

%ADD10C,0.0001*%
%ADD11C,0.0350*%
%ADD12C,0.1280*%
%ADD13C,0.1160*%
%ADD14C,0.0591*%
%ADD15C,0.0394*%
%ADD16C,0.0984*%
%ADD17C,0.0630*%
%ADD18C,0.0906*%
%ADD19C,0.1181*%


G04 ColorRGB 000000 for the following layer *
%LNDrill-Copper Top-Copper Bottom*%
%LPD*%
G54D11*
X22920Y9460D03*
X23920Y9460D03*
X24920Y9460D03*
X25920Y9460D03*
X26920Y9460D03*
X27920Y9460D03*
X28920Y9460D03*
X29920Y9460D03*
X22920Y12558D03*
X23920Y12558D03*
X24920Y12558D03*
X25920Y12558D03*
X26920Y12558D03*
X27920Y12558D03*
X28920Y12558D03*
X29920Y12558D03*
X5780Y4990D03*
X6780Y4990D03*
X7780Y4990D03*
X4780Y4990D03*
X5280Y5990D03*
X6280Y5990D03*
X7280Y5990D03*
X8280Y5990D03*
X10280Y4990D03*
X11280Y4990D03*
X12280Y4990D03*
X13280Y4990D03*
X10780Y5990D03*
X11780Y5990D03*
X12780Y5990D03*
X13780Y5990D03*
X15780Y4990D03*
X16780Y4990D03*
X17780Y4990D03*
X18780Y4990D03*
X16280Y5990D03*
X17280Y5990D03*
X18280Y5990D03*
X19280Y5990D03*
X21280Y4990D03*
X22280Y4990D03*
X23280Y4990D03*
X24280Y4990D03*
X21780Y5990D03*
X22780Y5990D03*
X23780Y5990D03*
X24780Y5990D03*
X26780Y4990D03*
X27780Y4990D03*
X28780Y4990D03*
X29780Y4990D03*
X27280Y5990D03*
X28280Y5990D03*
X29280Y5990D03*
X30280Y5990D03*
G54D12*
X4280Y2490D03*
X30780Y2490D03*
G54D13*
X1500Y1500D03*
X33500Y1500D03*
X33500Y18500D03*
X1500Y18500D03*
G54D14*
X10920Y14010D03*
X10920Y12010D03*
X18920Y9010D03*
X18920Y17010D03*
X10920Y17010D03*
G54D15*
X6110Y14860D03*
X6110Y16829D03*
X23580Y15040D03*
X23580Y17009D03*
G54D16*
X2144Y8228D03*
X2144Y11772D03*
G54D17*
X1357Y10000D03*
G54D18*
X2538Y10000D03*
G54D19*
X4900Y10000D03*

M02*
