G04 Generated by Ultiboard 14.1 *
%FSLAX24Y24*%
%MOIN*%

%ADD10C,0.0001*%
%ADD11C,0.0061*%
%ADD12C,0.0080*%
%ADD13C,0.05104*%


G04 ColorRGB FFFF00 for the following layer *
%LNSilkscreen Top*%
%LPD*%
G54D10*
G54D11*
X5398Y7091D02*
X5477Y7012D01*
X5555Y7012D01*
X5633Y7091D01*
X5398Y7327D01*
X5477Y7406D01*
X5555Y7406D01*
X5633Y7327D01*
X5986Y7012D02*
X5751Y7012D01*
X5751Y7209D01*
X5751Y7406D01*
X5986Y7406D01*
X5751Y7209D02*
X5908Y7209D01*
X6104Y7012D02*
X6104Y7406D01*
X6339Y7012D01*
X6339Y7406D01*
X6456Y7091D02*
X6535Y7012D01*
X6613Y7012D01*
X6692Y7091D01*
X6456Y7327D01*
X6535Y7406D01*
X6613Y7406D01*
X6692Y7327D01*
X6809Y7091D02*
X6888Y7012D01*
X6966Y7012D01*
X7044Y7091D01*
X7044Y7327D01*
X6966Y7406D01*
X6888Y7406D01*
X6809Y7327D01*
X6809Y7091D01*
X7162Y7012D02*
X7162Y7406D01*
X7319Y7406D01*
X7397Y7327D01*
X7397Y7288D01*
X7319Y7209D01*
X7162Y7209D01*
X7201Y7209D02*
X7397Y7012D01*
X7907Y7327D02*
X7985Y7406D01*
X7985Y7012D01*
X7867Y7012D02*
X8103Y7012D01*
X10860Y7091D02*
X10938Y7012D01*
X11017Y7012D01*
X11095Y7091D01*
X10860Y7327D01*
X10938Y7406D01*
X11017Y7406D01*
X11095Y7327D01*
X11448Y7012D02*
X11213Y7012D01*
X11213Y7209D01*
X11213Y7406D01*
X11448Y7406D01*
X11213Y7209D02*
X11370Y7209D01*
X11566Y7012D02*
X11566Y7406D01*
X11801Y7012D01*
X11801Y7406D01*
X11918Y7091D02*
X11997Y7012D01*
X12075Y7012D01*
X12153Y7091D01*
X11918Y7327D01*
X11997Y7406D01*
X12075Y7406D01*
X12153Y7327D01*
X12271Y7091D02*
X12349Y7012D01*
X12428Y7012D01*
X12506Y7091D01*
X12506Y7327D01*
X12428Y7406D01*
X12349Y7406D01*
X12271Y7327D01*
X12271Y7091D01*
X12624Y7012D02*
X12624Y7406D01*
X12781Y7406D01*
X12859Y7327D01*
X12859Y7288D01*
X12781Y7209D01*
X12624Y7209D01*
X12663Y7209D02*
X12859Y7012D01*
X13329Y7327D02*
X13408Y7406D01*
X13486Y7406D01*
X13564Y7327D01*
X13564Y7288D01*
X13329Y7012D01*
X13564Y7012D01*
X13564Y7051D01*
X16322Y7091D02*
X16400Y7012D01*
X16479Y7012D01*
X16557Y7091D01*
X16322Y7327D01*
X16400Y7406D01*
X16479Y7406D01*
X16557Y7327D01*
X16910Y7012D02*
X16675Y7012D01*
X16675Y7209D01*
X16675Y7406D01*
X16910Y7406D01*
X16675Y7209D02*
X16831Y7209D01*
X17027Y7012D02*
X17027Y7406D01*
X17263Y7012D01*
X17263Y7406D01*
X17380Y7091D02*
X17459Y7012D01*
X17537Y7012D01*
X17615Y7091D01*
X17380Y7327D01*
X17459Y7406D01*
X17537Y7406D01*
X17615Y7327D01*
X17733Y7091D02*
X17811Y7012D01*
X17890Y7012D01*
X17968Y7091D01*
X17968Y7327D01*
X17890Y7406D01*
X17811Y7406D01*
X17733Y7327D01*
X17733Y7091D01*
X18086Y7012D02*
X18086Y7406D01*
X18242Y7406D01*
X18321Y7327D01*
X18321Y7288D01*
X18242Y7209D01*
X18086Y7209D01*
X18125Y7209D02*
X18321Y7012D01*
X18830Y7366D02*
X18870Y7406D01*
X18948Y7406D01*
X19026Y7327D01*
X19026Y7248D01*
X18987Y7209D01*
X19026Y7170D01*
X19026Y7091D01*
X18948Y7012D01*
X18870Y7012D01*
X18830Y7051D01*
X18870Y7209D02*
X18987Y7209D01*
X21784Y7091D02*
X21862Y7012D01*
X21941Y7012D01*
X22019Y7091D01*
X21784Y7327D01*
X21862Y7406D01*
X21941Y7406D01*
X22019Y7327D01*
X22372Y7012D02*
X22136Y7012D01*
X22136Y7209D01*
X22136Y7406D01*
X22372Y7406D01*
X22136Y7209D02*
X22293Y7209D01*
X22489Y7012D02*
X22489Y7406D01*
X22724Y7012D01*
X22724Y7406D01*
X22842Y7091D02*
X22920Y7012D01*
X22999Y7012D01*
X23077Y7091D01*
X22842Y7327D01*
X22920Y7406D01*
X22999Y7406D01*
X23077Y7327D01*
X23195Y7091D02*
X23273Y7012D01*
X23352Y7012D01*
X23430Y7091D01*
X23430Y7327D01*
X23352Y7406D01*
X23273Y7406D01*
X23195Y7327D01*
X23195Y7091D01*
X23548Y7012D02*
X23548Y7406D01*
X23704Y7406D01*
X23783Y7327D01*
X23783Y7288D01*
X23704Y7209D01*
X23548Y7209D01*
X23587Y7209D02*
X23783Y7012D01*
X24488Y7170D02*
X24253Y7170D01*
X24449Y7406D01*
X24449Y7012D01*
X24410Y7012D02*
X24488Y7012D01*
X27246Y7012D02*
X27246Y7406D01*
X27402Y7406D01*
X27481Y7327D01*
X27481Y7288D01*
X27402Y7209D01*
X27246Y7209D01*
X27285Y7209D02*
X27481Y7012D01*
X27598Y7091D02*
X27677Y7012D01*
X27755Y7012D01*
X27833Y7091D01*
X27833Y7327D01*
X27755Y7406D01*
X27677Y7406D01*
X27598Y7327D01*
X27598Y7091D01*
X27951Y7012D02*
X28108Y7012D01*
X28186Y7091D01*
X28186Y7130D01*
X28108Y7209D01*
X28186Y7288D01*
X28186Y7327D01*
X28108Y7406D01*
X27990Y7406D01*
X27951Y7406D01*
X27990Y7209D02*
X28108Y7209D01*
X27990Y7406D02*
X27990Y7012D01*
X28304Y7091D02*
X28382Y7012D01*
X28461Y7012D01*
X28539Y7091D01*
X28539Y7327D01*
X28461Y7406D01*
X28382Y7406D01*
X28304Y7327D01*
X28304Y7091D01*
X28657Y7012D02*
X28657Y7406D01*
X28813Y7406D01*
X28892Y7327D01*
X28892Y7288D01*
X28813Y7209D01*
X28657Y7209D01*
X28696Y7209D02*
X28892Y7012D01*
X29088Y7012D02*
X29166Y7012D01*
X29088Y7406D02*
X29166Y7406D01*
X29127Y7012D02*
X29127Y7406D01*
X29362Y7091D02*
X29440Y7012D01*
X29519Y7012D01*
X29597Y7091D01*
X29597Y7327D01*
X29519Y7406D01*
X29440Y7406D01*
X29362Y7327D01*
X29362Y7091D01*
X31195Y10791D02*
X31195Y11184D01*
X31352Y11184D01*
X31431Y11106D01*
X31431Y11066D01*
X31352Y10988D01*
X31195Y10988D01*
X31235Y10988D02*
X31431Y10791D01*
X31587Y11106D02*
X31666Y11184D01*
X31666Y10791D01*
X31548Y10791D02*
X31783Y10791D01*
X1168Y15077D02*
X1246Y15077D01*
X1168Y15471D02*
X1246Y15471D01*
X1207Y15077D02*
X1207Y15471D01*
X1442Y15077D02*
X1442Y15471D01*
X1677Y15077D01*
X1677Y15471D01*
X1795Y15077D02*
X1795Y15471D01*
X1951Y15471D01*
X2030Y15392D01*
X2030Y15353D01*
X1951Y15274D01*
X1795Y15274D01*
X2147Y15471D02*
X2147Y15156D01*
X2226Y15077D01*
X2304Y15077D01*
X2383Y15156D01*
X2383Y15471D01*
X2618Y15077D02*
X2618Y15471D01*
X2500Y15471D02*
X2735Y15471D01*
X2971Y15431D02*
X2971Y15353D01*
X2971Y15116D02*
X2971Y15195D01*
X1089Y14683D02*
X1324Y14683D01*
X1207Y14841D02*
X1207Y14526D01*
X1481Y14841D02*
X1560Y14919D01*
X1560Y14526D01*
X1442Y14526D02*
X1677Y14526D01*
X1795Y14841D02*
X1873Y14919D01*
X1951Y14919D01*
X2030Y14841D01*
X2030Y14801D01*
X1795Y14526D01*
X2030Y14526D01*
X2030Y14565D01*
X2147Y14919D02*
X2265Y14526D01*
X2383Y14919D01*
X2853Y14841D02*
X2931Y14919D01*
X3010Y14919D01*
X3088Y14841D01*
X3088Y14801D01*
X2853Y14526D01*
X3088Y14526D01*
X3088Y14565D01*
X3206Y14526D02*
X3206Y14762D01*
X3284Y14919D01*
X3363Y14919D01*
X3441Y14762D01*
X3441Y14526D01*
X3206Y14644D02*
X3441Y14644D01*
X8859Y10391D02*
X8859Y10076D01*
X8938Y9997D01*
X9016Y9997D01*
X9094Y10076D01*
X9094Y10391D01*
X9251Y10312D02*
X9330Y10391D01*
X9330Y9997D01*
X9212Y9997D02*
X9447Y9997D01*
X25949Y16167D02*
X26106Y16167D01*
X26184Y16246D01*
X26184Y16285D01*
X26106Y16364D01*
X26184Y16443D01*
X26184Y16482D01*
X26106Y16561D01*
X25988Y16561D01*
X25949Y16561D01*
X25988Y16364D02*
X26106Y16364D01*
X25988Y16561D02*
X25988Y16167D01*
X26302Y16167D02*
X26302Y16403D01*
X26380Y16561D01*
X26459Y16561D01*
X26537Y16403D01*
X26537Y16167D01*
X26302Y16285D02*
X26537Y16285D01*
X26655Y16561D02*
X26655Y16167D01*
X26890Y16167D01*
X27007Y16561D02*
X27007Y16167D01*
X27243Y16167D01*
X27360Y16561D02*
X27360Y16246D01*
X27439Y16167D01*
X27517Y16167D01*
X27595Y16246D01*
X27595Y16561D01*
X27713Y16167D02*
X27713Y16561D01*
X27948Y16561D01*
X27713Y16364D02*
X27870Y16364D01*
X28066Y16167D02*
X28066Y16561D01*
X28301Y16561D01*
X28066Y16364D02*
X28223Y16364D01*
X28771Y16246D02*
X28850Y16167D01*
X28928Y16167D01*
X29006Y16246D01*
X28771Y16482D01*
X28850Y16561D01*
X28928Y16561D01*
X29006Y16482D01*
X29359Y16167D02*
X29124Y16167D01*
X29124Y16364D01*
X29124Y16561D01*
X29359Y16561D01*
X29124Y16364D02*
X29281Y16364D01*
X29477Y16167D02*
X29477Y16561D01*
X29712Y16167D01*
X29712Y16561D01*
X29830Y16246D02*
X29908Y16167D01*
X29986Y16167D01*
X30065Y16246D01*
X29830Y16482D01*
X29908Y16561D01*
X29986Y16561D01*
X30065Y16482D01*
X30182Y16246D02*
X30261Y16167D01*
X30339Y16167D01*
X30417Y16246D01*
X30417Y16482D01*
X30339Y16561D01*
X30261Y16561D01*
X30182Y16482D01*
X30182Y16246D01*
X30535Y16167D02*
X30535Y16561D01*
X30692Y16561D01*
X30770Y16482D01*
X30770Y16443D01*
X30692Y16364D01*
X30535Y16364D01*
X30574Y16364D02*
X30770Y16167D01*
X31241Y16167D02*
X31241Y16403D01*
X31319Y16561D01*
X31397Y16561D01*
X31476Y16403D01*
X31476Y16167D01*
X31241Y16285D02*
X31476Y16285D01*
X31593Y16167D02*
X31750Y16167D01*
X31828Y16246D01*
X31828Y16482D01*
X31750Y16561D01*
X31593Y16561D01*
X31632Y16561D02*
X31632Y16167D01*
X31946Y16167D02*
X31946Y16403D01*
X32024Y16561D01*
X32103Y16561D01*
X32181Y16403D01*
X32181Y16167D01*
X31946Y16285D02*
X32181Y16285D01*
X32299Y16167D02*
X32299Y16561D01*
X32456Y16561D01*
X32534Y16482D01*
X32534Y16443D01*
X32456Y16364D01*
X32299Y16364D01*
X32769Y16167D02*
X32769Y16561D01*
X32652Y16561D02*
X32887Y16561D01*
X33239Y16167D02*
X33004Y16167D01*
X33004Y16364D01*
X33004Y16561D01*
X33239Y16561D01*
X33004Y16364D02*
X33161Y16364D01*
X33357Y16167D02*
X33357Y16561D01*
X33514Y16561D01*
X33592Y16482D01*
X33592Y16443D01*
X33514Y16364D01*
X33357Y16364D01*
X33396Y16364D02*
X33592Y16167D01*
X25949Y15616D02*
X25949Y16009D01*
X26184Y16009D01*
X25949Y15813D02*
X26106Y15813D01*
X26302Y15694D02*
X26380Y15616D01*
X26459Y15616D01*
X26537Y15694D01*
X26537Y15931D01*
X26459Y16009D01*
X26380Y16009D01*
X26302Y15931D01*
X26302Y15694D01*
X26655Y15616D02*
X26655Y16009D01*
X26811Y16009D01*
X26890Y15931D01*
X26890Y15891D01*
X26811Y15813D01*
X26655Y15813D01*
X26694Y15813D02*
X26890Y15616D01*
X27360Y15616D02*
X27360Y16009D01*
X27595Y16009D01*
X27360Y15813D02*
X27517Y15813D01*
X27713Y15616D02*
X27713Y16009D01*
X27870Y16009D01*
X27948Y15931D01*
X27948Y15891D01*
X27870Y15813D01*
X27713Y15813D01*
X27752Y15813D02*
X27948Y15616D01*
X28301Y15694D02*
X28223Y15616D01*
X28144Y15616D01*
X28066Y15694D01*
X28066Y15931D01*
X28144Y16009D01*
X28223Y16009D01*
X28301Y15931D01*
X28967Y15616D02*
X28928Y15616D01*
X28850Y15694D01*
X28850Y15931D01*
X28928Y16009D01*
X28967Y16009D01*
X29124Y15616D02*
X29124Y15852D01*
X29202Y16009D01*
X29281Y16009D01*
X29359Y15852D01*
X29359Y15616D01*
X29124Y15734D02*
X29359Y15734D01*
X29477Y15616D02*
X29477Y16009D01*
X29712Y15616D01*
X29712Y16009D01*
X29830Y15616D02*
X29830Y15852D01*
X29908Y16009D01*
X29986Y16009D01*
X30065Y15852D01*
X30065Y15616D01*
X29830Y15734D02*
X30065Y15734D01*
X30182Y16009D02*
X30182Y15616D01*
X30417Y15616D01*
X30535Y15694D02*
X30613Y15616D01*
X30692Y15616D01*
X30770Y15694D01*
X30770Y15931D01*
X30692Y16009D01*
X30613Y16009D01*
X30535Y15931D01*
X30535Y15694D01*
X31045Y15813D02*
X31123Y15813D01*
X31123Y15694D01*
X31045Y15616D01*
X30966Y15616D01*
X30888Y15694D01*
X30888Y15931D01*
X30966Y16009D01*
X31123Y16009D01*
X31593Y15694D02*
X31672Y15616D01*
X31750Y15616D01*
X31828Y15694D01*
X31828Y15931D01*
X31750Y16009D01*
X31672Y16009D01*
X31593Y15931D01*
X31593Y15694D01*
X31946Y15616D02*
X31946Y16009D01*
X32181Y15616D01*
X32181Y16009D01*
X32299Y16009D02*
X32299Y15616D01*
X32534Y15616D01*
X32652Y16009D02*
X32769Y15813D01*
X32887Y16009D01*
X32769Y15813D02*
X32769Y15616D01*
X33044Y16009D02*
X33083Y16009D01*
X33161Y15931D01*
X33161Y15694D01*
X33083Y15616D01*
X33044Y15616D01*
X25949Y15065D02*
X26106Y15065D01*
X26184Y15143D01*
X26184Y15183D01*
X26106Y15261D01*
X26184Y15340D01*
X26184Y15380D01*
X26106Y15458D01*
X25988Y15458D01*
X25949Y15458D01*
X25988Y15261D02*
X26106Y15261D01*
X25988Y15458D02*
X25988Y15065D01*
X26537Y15065D02*
X26302Y15065D01*
X26302Y15261D01*
X26302Y15458D01*
X26537Y15458D01*
X26302Y15261D02*
X26459Y15261D01*
X26772Y15065D02*
X26772Y15458D01*
X26655Y15458D02*
X26890Y15458D01*
X27007Y15065D02*
X27007Y15301D01*
X27086Y15458D01*
X27164Y15458D01*
X27243Y15301D01*
X27243Y15065D01*
X27007Y15183D02*
X27243Y15183D01*
X27831Y15065D02*
X27831Y15458D01*
X27713Y15458D02*
X27948Y15458D01*
X28301Y15065D02*
X28066Y15065D01*
X28066Y15261D01*
X28066Y15458D01*
X28301Y15458D01*
X28066Y15261D02*
X28223Y15261D01*
X28418Y15143D02*
X28497Y15065D01*
X28575Y15065D01*
X28654Y15143D01*
X28418Y15380D01*
X28497Y15458D01*
X28575Y15458D01*
X28654Y15380D01*
X28889Y15065D02*
X28889Y15458D01*
X28771Y15458D02*
X29006Y15458D01*
X25949Y14513D02*
X25949Y14907D01*
X26184Y14513D01*
X26184Y14907D01*
X26302Y14592D02*
X26380Y14513D01*
X26459Y14513D01*
X26537Y14592D01*
X26537Y14828D01*
X26459Y14907D01*
X26380Y14907D01*
X26302Y14828D01*
X26302Y14592D01*
X26772Y14513D02*
X26772Y14907D01*
X26655Y14907D02*
X26890Y14907D01*
X27360Y14513D02*
X27360Y14907D01*
X27595Y14907D01*
X27360Y14710D02*
X27517Y14710D01*
X27713Y14592D02*
X27791Y14513D01*
X27870Y14513D01*
X27948Y14592D01*
X27948Y14828D01*
X27870Y14907D01*
X27791Y14907D01*
X27713Y14828D01*
X27713Y14592D01*
X28066Y14513D02*
X28066Y14907D01*
X28223Y14907D01*
X28301Y14828D01*
X28301Y14789D01*
X28223Y14710D01*
X28066Y14710D01*
X28105Y14710D02*
X28301Y14513D01*
X28771Y14513D02*
X28771Y14907D01*
X28928Y14907D01*
X29006Y14828D01*
X29006Y14789D01*
X28928Y14710D01*
X28771Y14710D01*
X28810Y14710D02*
X29006Y14513D01*
X29359Y14513D02*
X29124Y14513D01*
X29124Y14710D01*
X29124Y14907D01*
X29359Y14907D01*
X29124Y14710D02*
X29281Y14710D01*
X29477Y14907D02*
X29477Y14513D01*
X29712Y14513D01*
X30065Y14513D02*
X29830Y14513D01*
X29830Y14710D01*
X29830Y14907D01*
X30065Y14907D01*
X29830Y14710D02*
X29986Y14710D01*
X30182Y14513D02*
X30182Y14750D01*
X30261Y14907D01*
X30339Y14907D01*
X30417Y14750D01*
X30417Y14513D01*
X30182Y14631D02*
X30417Y14631D01*
X30535Y14592D02*
X30613Y14513D01*
X30692Y14513D01*
X30770Y14592D01*
X30535Y14828D01*
X30613Y14907D01*
X30692Y14907D01*
X30770Y14828D01*
X31123Y14513D02*
X30888Y14513D01*
X30888Y14710D01*
X30888Y14907D01*
X31123Y14907D01*
X30888Y14710D02*
X31045Y14710D01*
X1189Y6746D02*
X1268Y6667D01*
X1346Y6667D01*
X1424Y6746D01*
X1424Y7061D01*
X1581Y6982D02*
X1660Y7061D01*
X1660Y6667D01*
X1542Y6667D02*
X1777Y6667D01*
G54D12*
X22089Y9828D02*
X30751Y9828D01*
X22089Y10812D02*
X22089Y9828D01*
X22333Y10209D02*
G75*
D01*
G02X22333Y10209I143J0*
G01*
X30751Y9828D02*
X30751Y12190D01*
X22089Y12190D02*
X22089Y11206D01*
X30751Y12190D02*
X22089Y12190D01*
X22089Y10812D02*
X22106Y10813D01*
X22123Y10815D01*
X22140Y10819D01*
X22157Y10824D01*
X22172Y10831D01*
X22188Y10839D01*
X22202Y10848D01*
X22216Y10858D01*
X22228Y10870D01*
X22240Y10883D01*
X22251Y10896D01*
X22260Y10911D01*
X22268Y10926D01*
X22274Y10942D01*
X22279Y10958D01*
X22283Y10975D01*
X22285Y10992D01*
X22286Y11009D01*
X22285Y11026D01*
X22283Y11043D01*
X22279Y11060D01*
X22274Y11077D01*
X22268Y11092D01*
X22260Y11108D01*
X22251Y11122D01*
X22240Y11136D01*
X22228Y11148D01*
X22216Y11160D01*
X22202Y11170D01*
X22188Y11180D01*
X22172Y11188D01*
X22157Y11194D01*
X22140Y11199D01*
X22123Y11203D01*
X22106Y11205D01*
X22089Y11206D01*
X690Y13614D02*
G75*
D01*
G02X690Y13614I255J0*
G01*
X1160Y13624D02*
X710Y13624D01*
X1205Y13619D02*
X1785Y13619D01*
X2695Y14026D02*
X2659Y14054D01*
X2620Y14079D01*
X2580Y14099D01*
X2537Y14117D01*
X2494Y14130D01*
X2449Y14140D01*
X2404Y14146D01*
X2358Y14148D01*
X2312Y14145D01*
X2267Y14139D01*
X2223Y14129D01*
X2179Y14115D01*
X2137Y14098D01*
X2096Y14076D01*
X2058Y14052D01*
X2022Y14024D01*
X1988Y13993D01*
X1958Y13959D01*
X1930Y13922D01*
X1905Y13884D01*
X1885Y13843D01*
X1867Y13801D01*
X1854Y13757D01*
X1844Y13713D01*
X1838Y13667D01*
X1836Y13622D01*
X1839Y13576D01*
X1845Y13531D01*
X1855Y13486D01*
X1869Y13443D01*
X1886Y13400D01*
X1908Y13360D01*
X1932Y13322D01*
X1960Y13285D01*
X1991Y13252D01*
X2025Y13221D01*
X2062Y13193D01*
X2100Y13169D01*
X2141Y13148D01*
X2183Y13131D01*
X2227Y13117D01*
X2271Y13108D01*
X2317Y13102D01*
X2362Y13100D01*
X2408Y13102D01*
X2453Y13108D01*
X2498Y13118D01*
X2541Y13132D01*
X2584Y13150D01*
X2624Y13171D01*
X2662Y13196D01*
X2699Y13224D01*
X2715Y13239D01*
X3260Y13624D02*
G75*
D01*
G02X3260Y13624I255J0*
G01*
X3750Y13614D02*
X3300Y13614D01*
X2665Y13619D02*
X3245Y13619D01*
X3515Y13839D02*
X3515Y13389D01*
X2199Y5556D02*
X2278Y5477D01*
X2357Y5477D01*
X2436Y5556D01*
X2436Y5871D01*
X2554Y5792D02*
X2632Y5871D01*
X2711Y5871D01*
X2790Y5792D01*
X2790Y5753D01*
X2554Y5477D01*
X2790Y5477D01*
X2790Y5516D01*
X3280Y-1660D02*
X31780Y-1660D01*
X31780Y6440D01*
X3280Y6440D01*
X3280Y-1660D01*
X4280Y-10D02*
X4280Y1690D01*
X9280Y-10D02*
X9280Y1690D01*
X14780Y-10D02*
X14780Y1690D01*
X20280Y-10D02*
X20280Y1690D01*
X25780Y-10D02*
X25780Y1690D01*
X30780Y-10D02*
X30780Y1690D01*
X9920Y17510D02*
X9920Y8510D01*
G75*
D01*
G03X10420Y8010I500J0*
G01*
X19420Y8010D01*
G75*
D01*
G03X19920Y8510I0J500*
G01*
X19920Y17510D01*
G74*
D01*
G03X19420Y18010I500J0*
G01*
X10420Y18010D01*
G75*
D01*
G03X9920Y17510I0J-500*
G01*
X7716Y13336D02*
X7637Y13257D01*
X7558Y13257D01*
X7479Y13336D01*
X7479Y13572D01*
X7558Y13651D01*
X7637Y13651D01*
X7716Y13572D01*
X7873Y13572D02*
X7952Y13651D01*
X7952Y13257D01*
X7834Y13257D02*
X8070Y13257D01*
X4043Y15844D02*
G75*
D01*
G02X4043Y15844I2067J0*
G01*
X21716Y17476D02*
X21637Y17397D01*
X21558Y17397D01*
X21479Y17476D01*
X21479Y17712D01*
X21558Y17791D01*
X21637Y17791D01*
X21716Y17712D01*
X21834Y17712D02*
X21912Y17791D01*
X21991Y17791D01*
X22070Y17712D01*
X22070Y17673D01*
X21834Y17397D01*
X22070Y17397D01*
X22070Y17436D01*
X22084Y16024D02*
G75*
D01*
G02X22084Y16024I1496J0*
G01*
X963Y7913D02*
X176Y7913D01*
X176Y12087D01*
X963Y12087D01*
X5294Y12087D02*
X3325Y12087D01*
X5294Y11181D02*
X5294Y12087D01*
X5294Y7913D02*
X5294Y8819D01*
X3325Y7913D02*
X5294Y7913D01*
G54D13*
X2365Y13618D03*

M02*
