M48
INCH,TZ
VER,1
FMAT,2
DETECT,ON
ATC,ON
T1C0.0350
T2C0.1280
T3C0.1160
T4C0.0591
T5C0.0394
T6C0.0984
T7C0.0630
T8C0.0906
T9C0.1181
%
T1
X22920Y9460
X23920
X24920
X25920
X26920
X27920
X28920
X29920
X22920Y12558
X23920
X24920
X25920
X26920
X27920
X28920
X29920
X5780Y4990
X6780
X7780
X4780
X5280Y5990
X6280
X7280
X8280
X10280Y4990
X11280
X12280
X13280
X10780Y5990
X11780
X12780
X13780
X15780Y4990
X16780
X17780
X18780
X16280Y5990
X17280
X18280
X19280
X21280Y4990
X22280
X23280
X24280
X21780Y5990
X22780
X23780
X24780
X26780Y4990
X27780
X28780
X29780
X27280Y5990
X28280
X29280
X30280
T2
X4280Y2490
X30780
T3
X1500Y1500
X33500
Y18500
X1500
T4
X10920Y14010
Y12010
X18920Y9010
Y17010
X10920
T5
X6110Y14860
Y16829
X23580Y15040
Y17009
T6
X2144Y8228
Y11772
T7
X1357Y10000
T8
X2538Y10000
T9
X4900Y10000
M30
