G04 Generated by Ultiboard 14.1 *
%FSLAX24Y24*%
%MOIN*%

%ADD10C,0.0001*%
%ADD11C,0.0200*%
%ADD12R,0.0490X0.0490*%
%ADD13C,0.0490*%
%ADD14R,0.0731X0.0731*%
%ADD15C,0.0731*%
%ADD16R,0.0534X0.0534*%
%ADD17C,0.0534*%
%ADD18R,0.1124X0.1124*%
%ADD19C,0.1206*%
%ADD20C,0.1681*%


G04 ColorRGB 00FF00 for the following layer *
%LNCopper Top*%
%LPD*%
G54D10*
G54D11*
X25485Y14123D02*
X30777Y14123D01*
X32820Y12080D01*
X23920Y12558D02*
X25485Y14123D01*
X32820Y5519D02*
X32820Y12080D01*
X23918Y12560D02*
X22922Y12560D01*
X30851Y3550D02*
X32820Y5519D01*
X28220Y3550D02*
X30851Y3550D01*
X26780Y4990D02*
X28220Y3550D01*
X26965Y13603D02*
X30477Y13603D01*
X25920Y12558D02*
X26965Y13603D01*
X30477Y13603D02*
X32240Y11840D01*
X25918Y12560D02*
X24922Y12560D01*
X32240Y5657D02*
X32240Y11840D01*
X30543Y3960D02*
X32240Y5657D01*
X28810Y3960D02*
X30543Y3960D01*
X27780Y4990D02*
X28810Y3960D01*
X28456Y13083D02*
X30243Y13083D01*
X27931Y12558D02*
X28456Y13083D01*
X31730Y11596D02*
X30243Y13083D01*
X27920Y12558D02*
X27912Y12550D01*
X26928Y12550D02*
X27912Y12550D01*
X27920Y12558D02*
X27931Y12558D01*
X31730Y11596D02*
X31730Y5770D01*
X26920Y12558D02*
X26928Y12550D01*
X30320Y4360D02*
X31730Y5770D01*
X29400Y4360D02*
X30320Y4360D01*
X29400Y4360D02*
X28780Y4980D01*
X29918Y12560D02*
X31230Y11248D01*
X31230Y6010D01*
X28922Y12560D02*
X29918Y12560D01*
X30210Y4990D02*
X31230Y6010D01*
X29780Y4990D02*
X30210Y4990D01*
X23280Y4990D02*
X23970Y4300D01*
X24920Y9460D02*
X22760Y7300D01*
X17780Y4990D02*
X18470Y4300D01*
X19095Y4300D01*
X23970Y4300D02*
X24670Y4300D01*
X28920Y9460D02*
X25650Y6190D01*
X25650Y5280D02*
X25650Y6190D01*
X24670Y4300D02*
X25650Y5280D01*
X6780Y4990D02*
X7540Y4230D01*
X12280Y4990D02*
X13090Y4180D01*
X7540Y4230D02*
X8060Y4230D01*
X16560Y7300D02*
X13440Y4180D01*
X13090Y4180D02*
X13440Y4180D01*
X22760Y7300D02*
X16560Y7300D01*
X21210Y7750D02*
X11580Y7750D01*
X22920Y9460D02*
X21210Y7750D01*
X11580Y7750D02*
X8060Y4230D01*
X24240Y6780D02*
X21575Y6780D01*
X26920Y9460D02*
X24240Y6780D01*
X21575Y6780D02*
X19095Y4300D01*
G54D12*
X22920Y9460D03*
X4780Y4990D03*
X10280Y4990D03*
X15780Y4990D03*
X21280Y4990D03*
X26780Y4990D03*
G54D13*
X23920Y9460D03*
X24920Y9460D03*
X25920Y9460D03*
X26920Y9460D03*
X27920Y9460D03*
X28920Y9460D03*
X29920Y9460D03*
X22920Y12558D03*
X23920Y12558D03*
X24920Y12558D03*
X25920Y12558D03*
X26920Y12558D03*
X27920Y12558D03*
X28920Y12558D03*
X29920Y12558D03*
X5780Y4990D03*
X6780Y4990D03*
X7780Y4990D03*
X5280Y5990D03*
X6280Y5990D03*
X7280Y5990D03*
X8280Y5990D03*
X11280Y4990D03*
X12280Y4990D03*
X13280Y4990D03*
X10780Y5990D03*
X11780Y5990D03*
X12780Y5990D03*
X13780Y5990D03*
X16780Y4990D03*
X17780Y4990D03*
X18780Y4990D03*
X16280Y5990D03*
X17280Y5990D03*
X18280Y5990D03*
X19280Y5990D03*
X22280Y4990D03*
X23280Y4990D03*
X24280Y4990D03*
X21780Y5990D03*
X22780Y5990D03*
X23780Y5990D03*
X24780Y5990D03*
X27780Y4990D03*
X28780Y4990D03*
X29780Y4990D03*
X27280Y5990D03*
X28280Y5990D03*
X29280Y5990D03*
X30280Y5990D03*
G54D14*
X10920Y14010D03*
G54D15*
X10920Y12010D03*
X18920Y9010D03*
X18920Y17010D03*
X10920Y17010D03*
G54D16*
X6110Y14860D03*
X23580Y15040D03*
G54D17*
X6110Y16829D03*
X23580Y17009D03*
G54D18*
X2144Y8228D03*
X2144Y11772D03*
G54D19*
X2538Y10000D03*
G54D20*
X4900Y10000D03*

M02*
