999
DXF created by UltiBoard 14.1.0.0
0
SECTION
2
HEADER
9
$ACADVER
1
AC1014
9
$EXTMIN
10
-233.500000
20
-388.500000
30
0.0
9
$EXTMAX
10
3733.499843
20
2233.500000
30
0.0
9
$LUNITS
70
2
9
$HANDSEED
5
5C4
0
ENDSEC
0
SECTION
2
TABLES
0
TABLE
2
VPORT
5
50A
100
AcDbSymbolTable
70
1
0
VPORT
5
50B
100
AcDbSymbolTableRecord
100
AcDbViewportTableRecord
2
*ACTIVE
70
0
0
ENDTAB
0
TABLE
2
LTYPE
5
50C
100
AcDbSymbolTable
70
1
0
LTYPE
5
50D
100
AcDbSymbolTableRecord
100
AcDbLinetypeTableRecord
2
BYBLOCK
70
0
3

72
65
73
0
40
0.0
0
LTYPE
5
50E
100
AcDbSymbolTableRecord
100
AcDbLinetypeTableRecord
2
BYLAYER
70
0
3

72
65
73
0
40
0.0
0
LTYPE
5
50F
100
AcDbSymbolTableRecord
100
AcDbLinetypeTableRecord
2
CONTINUOUS
70
0
3
Solid line
72
65
73
0
40
0.0
0
ENDTAB
0
TABLE
2
LAYER
5
510
100
AcDbSymbolTable
70
3
0
LAYER
5
511
100
AcDbSymbolTableRecord
100
AcDbLayerTableRecord
2
0
70
0
62
7
6
CONTINUOUS
0
LAYER
5
512
100
AcDbSymbolTableRecord
100
AcDbLayerTableRecord
2
BOARD_OUTLINE
70
0
62
2
6
CONTINUOUS
0
LAYER
5
513
100
AcDbSymbolTableRecord
100
AcDbLayerTableRecord
2
DRILL
70
0
62
255
6
CONTINUOUS
0
ENDTAB
0
TABLE
2
STYLE
5
514
100
AcDbSymbolTable
70
2
0
STYLE
5
515
100
AcDbSymbolTableRecord
100
AcDbTextStyleTableRecord
2
MONOTxtStyle
70
0
40
0.0
41
1.0
50
0.0
71
0
42
0.2
3
monotxt
4

0
ENDTAB
0
TABLE
2
VIEW
5
516
100
AcDbSymbolTable
70
0
0
ENDTAB
0
TABLE
2
UCS
5
517
100
AcDbSymbolTable
70
0
0
ENDTAB
0
TABLE
2
APPID
5
518
100
AcDbSymbolTable
70
1
0
APPID
5
519
100
AcDbSymbolTableRecord
100
AcDbRegAppTableRecord
2
ACAD
70
0
0
ENDTAB
0
TABLE
2
DIMSTYLE
5
51A
100
AcDbSymbolTable
70
1
0
DIMSTYLE
105
51B
100
AcDbSymbolTableRecord
100
AcDbDimStyleTableRecord
2
STANDARD
70
0
0
ENDTAB
0
TABLE
2
BLOCK_RECORD
5
51C
100
AcDbSymbolTable
70
0
0
BLOCK_RECORD
5
51D
100
AcDbSymbolTableRecord
100
AcDbBlockTableRecord
2
*MODEL_SPACE
0
BLOCK_RECORD
5
51E
100
AcDbSymbolTableRecord
100
AcDbBlockTableRecord
2
*PAPER_SPACE
0
ENDTAB
0
ENDSEC
0
SECTION
2
BLOCKS
0
BLOCK
5
51F
100
AcDbEntity
8
0
100
AcDbBlockBegin
2
*MODEL_SPACE
70
0
0
ENDBLK
5
520
100
AcDbEntity
8
0
100
AcDbBlockEnd
0
BLOCK
5
521
100
AcDbEntity
8
0
100
AcDbBlockBegin
2
*PAPER_SPACE
70
0
0
ENDBLK
5
522
100
AcDbEntity
8
0
100
AcDbBlockEnd
0
ENDSEC
0
SECTION
2
ENTITIES
0
LWPOLYLINE
5
523
100
AcDbEntity
8
BOARD_OUTLINE
62
2
100
AcDbPolyline
90
2
70
0
43
0.000039
39
0.000039
10
0.000000
20
0.000000
10
3500.000000
20
0.000000
0
LWPOLYLINE
5
524
100
AcDbEntity
8
BOARD_OUTLINE
62
2
100
AcDbPolyline
90
2
70
0
43
0.000039
39
0.000039
10
3500.000000
20
0.000000
10
3500.000000
20
2000.000000
0
LWPOLYLINE
5
525
100
AcDbEntity
8
BOARD_OUTLINE
62
2
100
AcDbPolyline
90
2
70
0
43
0.000039
39
0.000039
10
3500.000000
20
2000.000000
10
0.000000
20
2000.000000
0
LWPOLYLINE
5
526
100
AcDbEntity
8
BOARD_OUTLINE
62
2
100
AcDbPolyline
90
2
70
0
43
0.000039
39
0.000039
10
0.000000
20
2000.000000
10
0.000000
20
0.000000
0
HATCH
5
527
100
AcDbEntity
8
DRILL
62
255
100
AcDbHatch
10
0.0
20
0.0
30
0.0
210
0.0
220
0.0
230
1.0
2
SOLID
70
1
71
0
91
1
92
1
93
1
72
2
10
2292.000000
20
946.000000
40
17.500000
50
0.000000
51
360.000000
73
1
97
0
75
0
76
0
98
1
10
0.0
20
0.0
0
CIRCLE
5
528
100
AcDbEntity
8
DRILL
62
255
100
AcDbCircle
39
0.000039
10
2292.000000
20
946.000000
30
0
40
17.500000
0
HATCH
5
529
100
AcDbEntity
8
DRILL
62
255
100
AcDbHatch
10
0.0
20
0.0
30
0.0
210
0.0
220
0.0
230
1.0
2
SOLID
70
1
71
0
91
1
92
1
93
1
72
2
10
2392.000000
20
946.000000
40
17.500000
50
0.000000
51
360.000000
73
1
97
0
75
0
76
0
98
1
10
0.0
20
0.0
0
CIRCLE
5
52A
100
AcDbEntity
8
DRILL
62
255
100
AcDbCircle
39
0.000039
10
2392.000000
20
946.000000
30
0
40
17.500000
0
HATCH
5
52B
100
AcDbEntity
8
DRILL
62
255
100
AcDbHatch
10
0.0
20
0.0
30
0.0
210
0.0
220
0.0
230
1.0
2
SOLID
70
1
71
0
91
1
92
1
93
1
72
2
10
2492.000000
20
946.000000
40
17.500000
50
0.000000
51
360.000000
73
1
97
0
75
0
76
0
98
1
10
0.0
20
0.0
0
CIRCLE
5
52C
100
AcDbEntity
8
DRILL
62
255
100
AcDbCircle
39
0.000039
10
2492.000000
20
946.000000
30
0
40
17.500000
0
HATCH
5
52D
100
AcDbEntity
8
DRILL
62
255
100
AcDbHatch
10
0.0
20
0.0
30
0.0
210
0.0
220
0.0
230
1.0
2
SOLID
70
1
71
0
91
1
92
1
93
1
72
2
10
2592.000000
20
946.000000
40
17.500000
50
0.000000
51
360.000000
73
1
97
0
75
0
76
0
98
1
10
0.0
20
0.0
0
CIRCLE
5
52E
100
AcDbEntity
8
DRILL
62
255
100
AcDbCircle
39
0.000039
10
2592.000000
20
946.000000
30
0
40
17.500000
0
HATCH
5
52F
100
AcDbEntity
8
DRILL
62
255
100
AcDbHatch
10
0.0
20
0.0
30
0.0
210
0.0
220
0.0
230
1.0
2
SOLID
70
1
71
0
91
1
92
1
93
1
72
2
10
2692.000000
20
946.000000
40
17.500000
50
0.000000
51
360.000000
73
1
97
0
75
0
76
0
98
1
10
0.0
20
0.0
0
CIRCLE
5
530
100
AcDbEntity
8
DRILL
62
255
100
AcDbCircle
39
0.000039
10
2692.000000
20
946.000000
30
0
40
17.500000
0
HATCH
5
531
100
AcDbEntity
8
DRILL
62
255
100
AcDbHatch
10
0.0
20
0.0
30
0.0
210
0.0
220
0.0
230
1.0
2
SOLID
70
1
71
0
91
1
92
1
93
1
72
2
10
2792.000000
20
946.000000
40
17.500000
50
0.000000
51
360.000000
73
1
97
0
75
0
76
0
98
1
10
0.0
20
0.0
0
CIRCLE
5
532
100
AcDbEntity
8
DRILL
62
255
100
AcDbCircle
39
0.000039
10
2792.000000
20
946.000000
30
0
40
17.500000
0
HATCH
5
533
100
AcDbEntity
8
DRILL
62
255
100
AcDbHatch
10
0.0
20
0.0
30
0.0
210
0.0
220
0.0
230
1.0
2
SOLID
70
1
71
0
91
1
92
1
93
1
72
2
10
2892.000000
20
946.000000
40
17.500000
50
0.000000
51
360.000000
73
1
97
0
75
0
76
0
98
1
10
0.0
20
0.0
0
CIRCLE
5
534
100
AcDbEntity
8
DRILL
62
255
100
AcDbCircle
39
0.000039
10
2892.000000
20
946.000000
30
0
40
17.500000
0
HATCH
5
535
100
AcDbEntity
8
DRILL
62
255
100
AcDbHatch
10
0.0
20
0.0
30
0.0
210
0.0
220
0.0
230
1.0
2
SOLID
70
1
71
0
91
1
92
1
93
1
72
2
10
2992.000000
20
946.000000
40
17.500000
50
0.000000
51
360.000000
73
1
97
0
75
0
76
0
98
1
10
0.0
20
0.0
0
CIRCLE
5
536
100
AcDbEntity
8
DRILL
62
255
100
AcDbCircle
39
0.000039
10
2992.000000
20
946.000000
30
0
40
17.500000
0
HATCH
5
537
100
AcDbEntity
8
DRILL
62
255
100
AcDbHatch
10
0.0
20
0.0
30
0.0
210
0.0
220
0.0
230
1.0
2
SOLID
70
1
71
0
91
1
92
1
93
1
72
2
10
2292.000000
20
1255.842520
40
17.500000
50
0.000000
51
360.000000
73
1
97
0
75
0
76
0
98
1
10
0.0
20
0.0
0
CIRCLE
5
538
100
AcDbEntity
8
DRILL
62
255
100
AcDbCircle
39
0.000039
10
2292.000000
20
1255.842520
30
0
40
17.500000
0
HATCH
5
539
100
AcDbEntity
8
DRILL
62
255
100
AcDbHatch
10
0.0
20
0.0
30
0.0
210
0.0
220
0.0
230
1.0
2
SOLID
70
1
71
0
91
1
92
1
93
1
72
2
10
2392.000000
20
1255.842520
40
17.500000
50
0.000000
51
360.000000
73
1
97
0
75
0
76
0
98
1
10
0.0
20
0.0
0
CIRCLE
5
53A
100
AcDbEntity
8
DRILL
62
255
100
AcDbCircle
39
0.000039
10
2392.000000
20
1255.842520
30
0
40
17.500000
0
HATCH
5
53B
100
AcDbEntity
8
DRILL
62
255
100
AcDbHatch
10
0.0
20
0.0
30
0.0
210
0.0
220
0.0
230
1.0
2
SOLID
70
1
71
0
91
1
92
1
93
1
72
2
10
2492.000000
20
1255.842520
40
17.500000
50
0.000000
51
360.000000
73
1
97
0
75
0
76
0
98
1
10
0.0
20
0.0
0
CIRCLE
5
53C
100
AcDbEntity
8
DRILL
62
255
100
AcDbCircle
39
0.000039
10
2492.000000
20
1255.842520
30
0
40
17.500000
0
HATCH
5
53D
100
AcDbEntity
8
DRILL
62
255
100
AcDbHatch
10
0.0
20
0.0
30
0.0
210
0.0
220
0.0
230
1.0
2
SOLID
70
1
71
0
91
1
92
1
93
1
72
2
10
2592.000000
20
1255.842520
40
17.500000
50
0.000000
51
360.000000
73
1
97
0
75
0
76
0
98
1
10
0.0
20
0.0
0
CIRCLE
5
53E
100
AcDbEntity
8
DRILL
62
255
100
AcDbCircle
39
0.000039
10
2592.000000
20
1255.842520
30
0
40
17.500000
0
HATCH
5
53F
100
AcDbEntity
8
DRILL
62
255
100
AcDbHatch
10
0.0
20
0.0
30
0.0
210
0.0
220
0.0
230
1.0
2
SOLID
70
1
71
0
91
1
92
1
93
1
72
2
10
2692.000000
20
1255.842520
40
17.500000
50
0.000000
51
360.000000
73
1
97
0
75
0
76
0
98
1
10
0.0
20
0.0
0
CIRCLE
5
540
100
AcDbEntity
8
DRILL
62
255
100
AcDbCircle
39
0.000039
10
2692.000000
20
1255.842520
30
0
40
17.500000
0
HATCH
5
541
100
AcDbEntity
8
DRILL
62
255
100
AcDbHatch
10
0.0
20
0.0
30
0.0
210
0.0
220
0.0
230
1.0
2
SOLID
70
1
71
0
91
1
92
1
93
1
72
2
10
2792.000000
20
1255.842520
40
17.500000
50
0.000000
51
360.000000
73
1
97
0
75
0
76
0
98
1
10
0.0
20
0.0
0
CIRCLE
5
542
100
AcDbEntity
8
DRILL
62
255
100
AcDbCircle
39
0.000039
10
2792.000000
20
1255.842520
30
0
40
17.500000
0
HATCH
5
543
100
AcDbEntity
8
DRILL
62
255
100
AcDbHatch
10
0.0
20
0.0
30
0.0
210
0.0
220
0.0
230
1.0
2
SOLID
70
1
71
0
91
1
92
1
93
1
72
2
10
2892.000000
20
1255.842520
40
17.500000
50
0.000000
51
360.000000
73
1
97
0
75
0
76
0
98
1
10
0.0
20
0.0
0
CIRCLE
5
544
100
AcDbEntity
8
DRILL
62
255
100
AcDbCircle
39
0.000039
10
2892.000000
20
1255.842520
30
0
40
17.500000
0
HATCH
5
545
100
AcDbEntity
8
DRILL
62
255
100
AcDbHatch
10
0.0
20
0.0
30
0.0
210
0.0
220
0.0
230
1.0
2
SOLID
70
1
71
0
91
1
92
1
93
1
72
2
10
2992.000000
20
1255.842520
40
17.500000
50
0.000000
51
360.000000
73
1
97
0
75
0
76
0
98
1
10
0.0
20
0.0
0
CIRCLE
5
546
100
AcDbEntity
8
DRILL
62
255
100
AcDbCircle
39
0.000039
10
2992.000000
20
1255.842520
30
0
40
17.500000
0
HATCH
5
547
100
AcDbEntity
8
DRILL
62
255
100
AcDbHatch
10
0.0
20
0.0
30
0.0
210
0.0
220
0.0
230
1.0
2
SOLID
70
1
71
0
91
1
92
1
93
1
72
2
10
578.000000
20
499.000000
40
17.500000
50
0.000000
51
360.000000
73
1
97
0
75
0
76
0
98
1
10
0.0
20
0.0
0
CIRCLE
5
548
100
AcDbEntity
8
DRILL
62
255
100
AcDbCircle
39
0.000039
10
578.000000
20
499.000000
30
0
40
17.500000
0
HATCH
5
549
100
AcDbEntity
8
DRILL
62
255
100
AcDbHatch
10
0.0
20
0.0
30
0.0
210
0.0
220
0.0
230
1.0
2
SOLID
70
1
71
0
91
1
92
1
93
1
72
2
10
678.000000
20
499.000000
40
17.500000
50
0.000000
51
360.000000
73
1
97
0
75
0
76
0
98
1
10
0.0
20
0.0
0
CIRCLE
5
54A
100
AcDbEntity
8
DRILL
62
255
100
AcDbCircle
39
0.000039
10
678.000000
20
499.000000
30
0
40
17.500000
0
HATCH
5
54B
100
AcDbEntity
8
DRILL
62
255
100
AcDbHatch
10
0.0
20
0.0
30
0.0
210
0.0
220
0.0
230
1.0
2
SOLID
70
1
71
0
91
1
92
1
93
1
72
2
10
778.000000
20
499.000000
40
17.500000
50
0.000000
51
360.000000
73
1
97
0
75
0
76
0
98
1
10
0.0
20
0.0
0
CIRCLE
5
54C
100
AcDbEntity
8
DRILL
62
255
100
AcDbCircle
39
0.000039
10
778.000000
20
499.000000
30
0
40
17.500000
0
HATCH
5
54D
100
AcDbEntity
8
DRILL
62
255
100
AcDbHatch
10
0.0
20
0.0
30
0.0
210
0.0
220
0.0
230
1.0
2
SOLID
70
1
71
0
91
1
92
1
93
1
72
2
10
478.000000
20
499.000000
40
17.500000
50
0.000000
51
360.000000
73
1
97
0
75
0
76
0
98
1
10
0.0
20
0.0
0
CIRCLE
5
54E
100
AcDbEntity
8
DRILL
62
255
100
AcDbCircle
39
0.000039
10
478.000000
20
499.000000
30
0
40
17.500000
0
HATCH
5
54F
100
AcDbEntity
8
DRILL
62
255
100
AcDbHatch
10
0.0
20
0.0
30
0.0
210
0.0
220
0.0
230
1.0
2
SOLID
70
1
71
0
91
1
92
1
93
1
72
2
10
528.000000
20
599.000000
40
17.500000
50
0.000000
51
360.000000
73
1
97
0
75
0
76
0
98
1
10
0.0
20
0.0
0
CIRCLE
5
550
100
AcDbEntity
8
DRILL
62
255
100
AcDbCircle
39
0.000039
10
528.000000
20
599.000000
30
0
40
17.500000
0
HATCH
5
551
100
AcDbEntity
8
DRILL
62
255
100
AcDbHatch
10
0.0
20
0.0
30
0.0
210
0.0
220
0.0
230
1.0
2
SOLID
70
1
71
0
91
1
92
1
93
1
72
2
10
628.000000
20
599.000000
40
17.500000
50
0.000000
51
360.000000
73
1
97
0
75
0
76
0
98
1
10
0.0
20
0.0
0
CIRCLE
5
552
100
AcDbEntity
8
DRILL
62
255
100
AcDbCircle
39
0.000039
10
628.000000
20
599.000000
30
0
40
17.500000
0
HATCH
5
553
100
AcDbEntity
8
DRILL
62
255
100
AcDbHatch
10
0.0
20
0.0
30
0.0
210
0.0
220
0.0
230
1.0
2
SOLID
70
1
71
0
91
1
92
1
93
1
72
2
10
728.000000
20
599.000000
40
17.500000
50
0.000000
51
360.000000
73
1
97
0
75
0
76
0
98
1
10
0.0
20
0.0
0
CIRCLE
5
554
100
AcDbEntity
8
DRILL
62
255
100
AcDbCircle
39
0.000039
10
728.000000
20
599.000000
30
0
40
17.500000
0
HATCH
5
555
100
AcDbEntity
8
DRILL
62
255
100
AcDbHatch
10
0.0
20
0.0
30
0.0
210
0.0
220
0.0
230
1.0
2
SOLID
70
1
71
0
91
1
92
1
93
1
72
2
10
828.000000
20
599.000000
40
17.500000
50
0.000000
51
360.000000
73
1
97
0
75
0
76
0
98
1
10
0.0
20
0.0
0
CIRCLE
5
556
100
AcDbEntity
8
DRILL
62
255
100
AcDbCircle
39
0.000039
10
828.000000
20
599.000000
30
0
40
17.500000
0
HATCH
5
557
100
AcDbEntity
8
DRILL
62
255
100
AcDbHatch
10
0.0
20
0.0
30
0.0
210
0.0
220
0.0
230
1.0
2
SOLID
70
1
71
0
91
1
92
1
93
1
72
2
10
1028.000000
20
499.000000
40
17.500000
50
0.000000
51
360.000000
73
1
97
0
75
0
76
0
98
1
10
0.0
20
0.0
0
CIRCLE
5
558
100
AcDbEntity
8
DRILL
62
255
100
AcDbCircle
39
0.000039
10
1028.000000
20
499.000000
30
0
40
17.500000
0
HATCH
5
559
100
AcDbEntity
8
DRILL
62
255
100
AcDbHatch
10
0.0
20
0.0
30
0.0
210
0.0
220
0.0
230
1.0
2
SOLID
70
1
71
0
91
1
92
1
93
1
72
2
10
1128.000000
20
499.000000
40
17.500000
50
0.000000
51
360.000000
73
1
97
0
75
0
76
0
98
1
10
0.0
20
0.0
0
CIRCLE
5
55A
100
AcDbEntity
8
DRILL
62
255
100
AcDbCircle
39
0.000039
10
1128.000000
20
499.000000
30
0
40
17.500000
0
HATCH
5
55B
100
AcDbEntity
8
DRILL
62
255
100
AcDbHatch
10
0.0
20
0.0
30
0.0
210
0.0
220
0.0
230
1.0
2
SOLID
70
1
71
0
91
1
92
1
93
1
72
2
10
1228.000000
20
499.000000
40
17.500000
50
0.000000
51
360.000000
73
1
97
0
75
0
76
0
98
1
10
0.0
20
0.0
0
CIRCLE
5
55C
100
AcDbEntity
8
DRILL
62
255
100
AcDbCircle
39
0.000039
10
1228.000000
20
499.000000
30
0
40
17.500000
0
HATCH
5
55D
100
AcDbEntity
8
DRILL
62
255
100
AcDbHatch
10
0.0
20
0.0
30
0.0
210
0.0
220
0.0
230
1.0
2
SOLID
70
1
71
0
91
1
92
1
93
1
72
2
10
1328.000000
20
499.000000
40
17.500000
50
0.000000
51
360.000000
73
1
97
0
75
0
76
0
98
1
10
0.0
20
0.0
0
CIRCLE
5
55E
100
AcDbEntity
8
DRILL
62
255
100
AcDbCircle
39
0.000039
10
1328.000000
20
499.000000
30
0
40
17.500000
0
HATCH
5
55F
100
AcDbEntity
8
DRILL
62
255
100
AcDbHatch
10
0.0
20
0.0
30
0.0
210
0.0
220
0.0
230
1.0
2
SOLID
70
1
71
0
91
1
92
1
93
1
72
2
10
1078.000000
20
599.000000
40
17.500000
50
0.000000
51
360.000000
73
1
97
0
75
0
76
0
98
1
10
0.0
20
0.0
0
CIRCLE
5
560
100
AcDbEntity
8
DRILL
62
255
100
AcDbCircle
39
0.000039
10
1078.000000
20
599.000000
30
0
40
17.500000
0
HATCH
5
561
100
AcDbEntity
8
DRILL
62
255
100
AcDbHatch
10
0.0
20
0.0
30
0.0
210
0.0
220
0.0
230
1.0
2
SOLID
70
1
71
0
91
1
92
1
93
1
72
2
10
1178.000000
20
599.000000
40
17.500000
50
0.000000
51
360.000000
73
1
97
0
75
0
76
0
98
1
10
0.0
20
0.0
0
CIRCLE
5
562
100
AcDbEntity
8
DRILL
62
255
100
AcDbCircle
39
0.000039
10
1178.000000
20
599.000000
30
0
40
17.500000
0
HATCH
5
563
100
AcDbEntity
8
DRILL
62
255
100
AcDbHatch
10
0.0
20
0.0
30
0.0
210
0.0
220
0.0
230
1.0
2
SOLID
70
1
71
0
91
1
92
1
93
1
72
2
10
1278.000000
20
599.000000
40
17.500000
50
0.000000
51
360.000000
73
1
97
0
75
0
76
0
98
1
10
0.0
20
0.0
0
CIRCLE
5
564
100
AcDbEntity
8
DRILL
62
255
100
AcDbCircle
39
0.000039
10
1278.000000
20
599.000000
30
0
40
17.500000
0
HATCH
5
565
100
AcDbEntity
8
DRILL
62
255
100
AcDbHatch
10
0.0
20
0.0
30
0.0
210
0.0
220
0.0
230
1.0
2
SOLID
70
1
71
0
91
1
92
1
93
1
72
2
10
1378.000000
20
599.000000
40
17.500000
50
0.000000
51
360.000000
73
1
97
0
75
0
76
0
98
1
10
0.0
20
0.0
0
CIRCLE
5
566
100
AcDbEntity
8
DRILL
62
255
100
AcDbCircle
39
0.000039
10
1378.000000
20
599.000000
30
0
40
17.500000
0
HATCH
5
567
100
AcDbEntity
8
DRILL
62
255
100
AcDbHatch
10
0.0
20
0.0
30
0.0
210
0.0
220
0.0
230
1.0
2
SOLID
70
1
71
0
91
1
92
1
93
1
72
2
10
1578.000000
20
499.000000
40
17.500000
50
0.000000
51
360.000000
73
1
97
0
75
0
76
0
98
1
10
0.0
20
0.0
0
CIRCLE
5
568
100
AcDbEntity
8
DRILL
62
255
100
AcDbCircle
39
0.000039
10
1578.000000
20
499.000000
30
0
40
17.500000
0
HATCH
5
569
100
AcDbEntity
8
DRILL
62
255
100
AcDbHatch
10
0.0
20
0.0
30
0.0
210
0.0
220
0.0
230
1.0
2
SOLID
70
1
71
0
91
1
92
1
93
1
72
2
10
1678.000000
20
499.000000
40
17.500000
50
0.000000
51
360.000000
73
1
97
0
75
0
76
0
98
1
10
0.0
20
0.0
0
CIRCLE
5
56A
100
AcDbEntity
8
DRILL
62
255
100
AcDbCircle
39
0.000039
10
1678.000000
20
499.000000
30
0
40
17.500000
0
HATCH
5
56B
100
AcDbEntity
8
DRILL
62
255
100
AcDbHatch
10
0.0
20
0.0
30
0.0
210
0.0
220
0.0
230
1.0
2
SOLID
70
1
71
0
91
1
92
1
93
1
72
2
10
1778.000000
20
499.000000
40
17.500000
50
0.000000
51
360.000000
73
1
97
0
75
0
76
0
98
1
10
0.0
20
0.0
0
CIRCLE
5
56C
100
AcDbEntity
8
DRILL
62
255
100
AcDbCircle
39
0.000039
10
1778.000000
20
499.000000
30
0
40
17.500000
0
HATCH
5
56D
100
AcDbEntity
8
DRILL
62
255
100
AcDbHatch
10
0.0
20
0.0
30
0.0
210
0.0
220
0.0
230
1.0
2
SOLID
70
1
71
0
91
1
92
1
93
1
72
2
10
1878.000000
20
499.000000
40
17.500000
50
0.000000
51
360.000000
73
1
97
0
75
0
76
0
98
1
10
0.0
20
0.0
0
CIRCLE
5
56E
100
AcDbEntity
8
DRILL
62
255
100
AcDbCircle
39
0.000039
10
1878.000000
20
499.000000
30
0
40
17.500000
0
HATCH
5
56F
100
AcDbEntity
8
DRILL
62
255
100
AcDbHatch
10
0.0
20
0.0
30
0.0
210
0.0
220
0.0
230
1.0
2
SOLID
70
1
71
0
91
1
92
1
93
1
72
2
10
1628.000000
20
599.000000
40
17.500000
50
0.000000
51
360.000000
73
1
97
0
75
0
76
0
98
1
10
0.0
20
0.0
0
CIRCLE
5
570
100
AcDbEntity
8
DRILL
62
255
100
AcDbCircle
39
0.000039
10
1628.000000
20
599.000000
30
0
40
17.500000
0
HATCH
5
571
100
AcDbEntity
8
DRILL
62
255
100
AcDbHatch
10
0.0
20
0.0
30
0.0
210
0.0
220
0.0
230
1.0
2
SOLID
70
1
71
0
91
1
92
1
93
1
72
2
10
1728.000000
20
599.000000
40
17.500000
50
0.000000
51
360.000000
73
1
97
0
75
0
76
0
98
1
10
0.0
20
0.0
0
CIRCLE
5
572
100
AcDbEntity
8
DRILL
62
255
100
AcDbCircle
39
0.000039
10
1728.000000
20
599.000000
30
0
40
17.500000
0
HATCH
5
573
100
AcDbEntity
8
DRILL
62
255
100
AcDbHatch
10
0.0
20
0.0
30
0.0
210
0.0
220
0.0
230
1.0
2
SOLID
70
1
71
0
91
1
92
1
93
1
72
2
10
1828.000000
20
599.000000
40
17.500000
50
0.000000
51
360.000000
73
1
97
0
75
0
76
0
98
1
10
0.0
20
0.0
0
CIRCLE
5
574
100
AcDbEntity
8
DRILL
62
255
100
AcDbCircle
39
0.000039
10
1828.000000
20
599.000000
30
0
40
17.500000
0
HATCH
5
575
100
AcDbEntity
8
DRILL
62
255
100
AcDbHatch
10
0.0
20
0.0
30
0.0
210
0.0
220
0.0
230
1.0
2
SOLID
70
1
71
0
91
1
92
1
93
1
72
2
10
1928.000000
20
599.000000
40
17.500000
50
0.000000
51
360.000000
73
1
97
0
75
0
76
0
98
1
10
0.0
20
0.0
0
CIRCLE
5
576
100
AcDbEntity
8
DRILL
62
255
100
AcDbCircle
39
0.000039
10
1928.000000
20
599.000000
30
0
40
17.500000
0
HATCH
5
577
100
AcDbEntity
8
DRILL
62
255
100
AcDbHatch
10
0.0
20
0.0
30
0.0
210
0.0
220
0.0
230
1.0
2
SOLID
70
1
71
0
91
1
92
1
93
1
72
2
10
2128.000000
20
499.000000
40
17.500000
50
0.000000
51
360.000000
73
1
97
0
75
0
76
0
98
1
10
0.0
20
0.0
0
CIRCLE
5
578
100
AcDbEntity
8
DRILL
62
255
100
AcDbCircle
39
0.000039
10
2128.000000
20
499.000000
30
0
40
17.500000
0
HATCH
5
579
100
AcDbEntity
8
DRILL
62
255
100
AcDbHatch
10
0.0
20
0.0
30
0.0
210
0.0
220
0.0
230
1.0
2
SOLID
70
1
71
0
91
1
92
1
93
1
72
2
10
2228.000000
20
499.000000
40
17.500000
50
0.000000
51
360.000000
73
1
97
0
75
0
76
0
98
1
10
0.0
20
0.0
0
CIRCLE
5
57A
100
AcDbEntity
8
DRILL
62
255
100
AcDbCircle
39
0.000039
10
2228.000000
20
499.000000
30
0
40
17.500000
0
HATCH
5
57B
100
AcDbEntity
8
DRILL
62
255
100
AcDbHatch
10
0.0
20
0.0
30
0.0
210
0.0
220
0.0
230
1.0
2
SOLID
70
1
71
0
91
1
92
1
93
1
72
2
10
2328.000000
20
499.000000
40
17.500000
50
0.000000
51
360.000000
73
1
97
0
75
0
76
0
98
1
10
0.0
20
0.0
0
CIRCLE
5
57C
100
AcDbEntity
8
DRILL
62
255
100
AcDbCircle
39
0.000039
10
2328.000000
20
499.000000
30
0
40
17.500000
0
HATCH
5
57D
100
AcDbEntity
8
DRILL
62
255
100
AcDbHatch
10
0.0
20
0.0
30
0.0
210
0.0
220
0.0
230
1.0
2
SOLID
70
1
71
0
91
1
92
1
93
1
72
2
10
2428.000000
20
499.000000
40
17.500000
50
0.000000
51
360.000000
73
1
97
0
75
0
76
0
98
1
10
0.0
20
0.0
0
CIRCLE
5
57E
100
AcDbEntity
8
DRILL
62
255
100
AcDbCircle
39
0.000039
10
2428.000000
20
499.000000
30
0
40
17.500000
0
HATCH
5
57F
100
AcDbEntity
8
DRILL
62
255
100
AcDbHatch
10
0.0
20
0.0
30
0.0
210
0.0
220
0.0
230
1.0
2
SOLID
70
1
71
0
91
1
92
1
93
1
72
2
10
2178.000000
20
599.000000
40
17.500000
50
0.000000
51
360.000000
73
1
97
0
75
0
76
0
98
1
10
0.0
20
0.0
0
CIRCLE
5
580
100
AcDbEntity
8
DRILL
62
255
100
AcDbCircle
39
0.000039
10
2178.000000
20
599.000000
30
0
40
17.500000
0
HATCH
5
581
100
AcDbEntity
8
DRILL
62
255
100
AcDbHatch
10
0.0
20
0.0
30
0.0
210
0.0
220
0.0
230
1.0
2
SOLID
70
1
71
0
91
1
92
1
93
1
72
2
10
2278.000000
20
599.000000
40
17.500000
50
0.000000
51
360.000000
73
1
97
0
75
0
76
0
98
1
10
0.0
20
0.0
0
CIRCLE
5
582
100
AcDbEntity
8
DRILL
62
255
100
AcDbCircle
39
0.000039
10
2278.000000
20
599.000000
30
0
40
17.500000
0
HATCH
5
583
100
AcDbEntity
8
DRILL
62
255
100
AcDbHatch
10
0.0
20
0.0
30
0.0
210
0.0
220
0.0
230
1.0
2
SOLID
70
1
71
0
91
1
92
1
93
1
72
2
10
2378.000000
20
599.000000
40
17.500000
50
0.000000
51
360.000000
73
1
97
0
75
0
76
0
98
1
10
0.0
20
0.0
0
CIRCLE
5
584
100
AcDbEntity
8
DRILL
62
255
100
AcDbCircle
39
0.000039
10
2378.000000
20
599.000000
30
0
40
17.500000
0
HATCH
5
585
100
AcDbEntity
8
DRILL
62
255
100
AcDbHatch
10
0.0
20
0.0
30
0.0
210
0.0
220
0.0
230
1.0
2
SOLID
70
1
71
0
91
1
92
1
93
1
72
2
10
2478.000000
20
599.000000
40
17.500000
50
0.000000
51
360.000000
73
1
97
0
75
0
76
0
98
1
10
0.0
20
0.0
0
CIRCLE
5
586
100
AcDbEntity
8
DRILL
62
255
100
AcDbCircle
39
0.000039
10
2478.000000
20
599.000000
30
0
40
17.500000
0
HATCH
5
587
100
AcDbEntity
8
DRILL
62
255
100
AcDbHatch
10
0.0
20
0.0
30
0.0
210
0.0
220
0.0
230
1.0
2
SOLID
70
1
71
0
91
1
92
1
93
1
72
2
10
2678.000000
20
499.000000
40
17.500000
50
0.000000
51
360.000000
73
1
97
0
75
0
76
0
98
1
10
0.0
20
0.0
0
CIRCLE
5
588
100
AcDbEntity
8
DRILL
62
255
100
AcDbCircle
39
0.000039
10
2678.000000
20
499.000000
30
0
40
17.500000
0
HATCH
5
589
100
AcDbEntity
8
DRILL
62
255
100
AcDbHatch
10
0.0
20
0.0
30
0.0
210
0.0
220
0.0
230
1.0
2
SOLID
70
1
71
0
91
1
92
1
93
1
72
2
10
2778.000000
20
499.000000
40
17.500000
50
0.000000
51
360.000000
73
1
97
0
75
0
76
0
98
1
10
0.0
20
0.0
0
CIRCLE
5
58A
100
AcDbEntity
8
DRILL
62
255
100
AcDbCircle
39
0.000039
10
2778.000000
20
499.000000
30
0
40
17.500000
0
HATCH
5
58B
100
AcDbEntity
8
DRILL
62
255
100
AcDbHatch
10
0.0
20
0.0
30
0.0
210
0.0
220
0.0
230
1.0
2
SOLID
70
1
71
0
91
1
92
1
93
1
72
2
10
2878.000000
20
499.000000
40
17.500000
50
0.000000
51
360.000000
73
1
97
0
75
0
76
0
98
1
10
0.0
20
0.0
0
CIRCLE
5
58C
100
AcDbEntity
8
DRILL
62
255
100
AcDbCircle
39
0.000039
10
2878.000000
20
499.000000
30
0
40
17.500000
0
HATCH
5
58D
100
AcDbEntity
8
DRILL
62
255
100
AcDbHatch
10
0.0
20
0.0
30
0.0
210
0.0
220
0.0
230
1.0
2
SOLID
70
1
71
0
91
1
92
1
93
1
72
2
10
2978.000000
20
499.000000
40
17.500000
50
0.000000
51
360.000000
73
1
97
0
75
0
76
0
98
1
10
0.0
20
0.0
0
CIRCLE
5
58E
100
AcDbEntity
8
DRILL
62
255
100
AcDbCircle
39
0.000039
10
2978.000000
20
499.000000
30
0
40
17.500000
0
HATCH
5
58F
100
AcDbEntity
8
DRILL
62
255
100
AcDbHatch
10
0.0
20
0.0
30
0.0
210
0.0
220
0.0
230
1.0
2
SOLID
70
1
71
0
91
1
92
1
93
1
72
2
10
2728.000000
20
599.000000
40
17.500000
50
0.000000
51
360.000000
73
1
97
0
75
0
76
0
98
1
10
0.0
20
0.0
0
CIRCLE
5
590
100
AcDbEntity
8
DRILL
62
255
100
AcDbCircle
39
0.000039
10
2728.000000
20
599.000000
30
0
40
17.500000
0
HATCH
5
591
100
AcDbEntity
8
DRILL
62
255
100
AcDbHatch
10
0.0
20
0.0
30
0.0
210
0.0
220
0.0
230
1.0
2
SOLID
70
1
71
0
91
1
92
1
93
1
72
2
10
2828.000000
20
599.000000
40
17.500000
50
0.000000
51
360.000000
73
1
97
0
75
0
76
0
98
1
10
0.0
20
0.0
0
CIRCLE
5
592
100
AcDbEntity
8
DRILL
62
255
100
AcDbCircle
39
0.000039
10
2828.000000
20
599.000000
30
0
40
17.500000
0
HATCH
5
593
100
AcDbEntity
8
DRILL
62
255
100
AcDbHatch
10
0.0
20
0.0
30
0.0
210
0.0
220
0.0
230
1.0
2
SOLID
70
1
71
0
91
1
92
1
93
1
72
2
10
2928.000000
20
599.000000
40
17.500000
50
0.000000
51
360.000000
73
1
97
0
75
0
76
0
98
1
10
0.0
20
0.0
0
CIRCLE
5
594
100
AcDbEntity
8
DRILL
62
255
100
AcDbCircle
39
0.000039
10
2928.000000
20
599.000000
30
0
40
17.500000
0
HATCH
5
595
100
AcDbEntity
8
DRILL
62
255
100
AcDbHatch
10
0.0
20
0.0
30
0.0
210
0.0
220
0.0
230
1.0
2
SOLID
70
1
71
0
91
1
92
1
93
1
72
2
10
3028.000000
20
599.000000
40
17.500000
50
0.000000
51
360.000000
73
1
97
0
75
0
76
0
98
1
10
0.0
20
0.0
0
CIRCLE
5
596
100
AcDbEntity
8
DRILL
62
255
100
AcDbCircle
39
0.000039
10
3028.000000
20
599.000000
30
0
40
17.500000
0
HATCH
5
597
100
AcDbEntity
8
DRILL
62
255
100
AcDbHatch
10
0.0
20
0.0
30
0.0
210
0.0
220
0.0
230
1.0
2
SOLID
70
1
71
0
91
1
92
1
93
1
72
2
10
428.000000
20
249.000000
40
64.000000
50
0.000000
51
360.000000
73
1
97
0
75
0
76
0
98
1
10
0.0
20
0.0
0
CIRCLE
5
598
100
AcDbEntity
8
DRILL
62
255
100
AcDbCircle
39
0.000039
10
428.000000
20
249.000000
30
0
40
64.000000
0
HATCH
5
599
100
AcDbEntity
8
DRILL
62
255
100
AcDbHatch
10
0.0
20
0.0
30
0.0
210
0.0
220
0.0
230
1.0
2
SOLID
70
1
71
0
91
1
92
1
93
1
72
2
10
3078.000000
20
249.000000
40
64.000000
50
0.000000
51
360.000000
73
1
97
0
75
0
76
0
98
1
10
0.0
20
0.0
0
CIRCLE
5
59A
100
AcDbEntity
8
DRILL
62
255
100
AcDbCircle
39
0.000039
10
3078.000000
20
249.000000
30
0
40
64.000000
0
HATCH
5
59B
100
AcDbEntity
8
DRILL
62
255
100
AcDbHatch
10
0.0
20
0.0
30
0.0
210
0.0
220
0.0
230
1.0
2
SOLID
70
1
71
0
91
1
92
1
93
1
72
2
10
150.000000
20
150.000000
40
58.000000
50
0.000000
51
360.000000
73
1
97
0
75
0
76
0
98
1
10
0.0
20
0.0
0
CIRCLE
5
59C
100
AcDbEntity
8
DRILL
62
255
100
AcDbCircle
39
0.000039
10
150.000000
20
150.000000
30
0
40
58.000000
0
HATCH
5
59D
100
AcDbEntity
8
DRILL
62
255
100
AcDbHatch
10
0.0
20
0.0
30
0.0
210
0.0
220
0.0
230
1.0
2
SOLID
70
1
71
0
91
1
92
1
93
1
72
2
10
3350.000000
20
150.000000
40
58.000000
50
0.000000
51
360.000000
73
1
97
0
75
0
76
0
98
1
10
0.0
20
0.0
0
CIRCLE
5
59E
100
AcDbEntity
8
DRILL
62
255
100
AcDbCircle
39
0.000039
10
3350.000000
20
150.000000
30
0
40
58.000000
0
HATCH
5
59F
100
AcDbEntity
8
DRILL
62
255
100
AcDbHatch
10
0.0
20
0.0
30
0.0
210
0.0
220
0.0
230
1.0
2
SOLID
70
1
71
0
91
1
92
1
93
1
72
2
10
3350.000000
20
1850.000000
40
58.000000
50
0.000000
51
360.000000
73
1
97
0
75
0
76
0
98
1
10
0.0
20
0.0
0
CIRCLE
5
5A0
100
AcDbEntity
8
DRILL
62
255
100
AcDbCircle
39
0.000039
10
3350.000000
20
1850.000000
30
0
40
58.000000
0
HATCH
5
5A1
100
AcDbEntity
8
DRILL
62
255
100
AcDbHatch
10
0.0
20
0.0
30
0.0
210
0.0
220
0.0
230
1.0
2
SOLID
70
1
71
0
91
1
92
1
93
1
72
2
10
150.000000
20
1850.000000
40
58.000000
50
0.000000
51
360.000000
73
1
97
0
75
0
76
0
98
1
10
0.0
20
0.0
0
CIRCLE
5
5A2
100
AcDbEntity
8
DRILL
62
255
100
AcDbCircle
39
0.000039
10
150.000000
20
1850.000000
30
0
40
58.000000
0
HATCH
5
5A3
100
AcDbEntity
8
DRILL
62
255
100
AcDbHatch
10
0.0
20
0.0
30
0.0
210
0.0
220
0.0
230
1.0
2
SOLID
70
1
71
0
91
1
92
1
93
1
72
2
10
1092.000000
20
1401.000000
40
29.527559
50
0.000000
51
360.000000
73
1
97
0
75
0
76
0
98
1
10
0.0
20
0.0
0
CIRCLE
5
5A4
100
AcDbEntity
8
DRILL
62
255
100
AcDbCircle
39
0.000039
10
1092.000000
20
1401.000000
30
0
40
29.527559
0
HATCH
5
5A5
100
AcDbEntity
8
DRILL
62
255
100
AcDbHatch
10
0.0
20
0.0
30
0.0
210
0.0
220
0.0
230
1.0
2
SOLID
70
1
71
0
91
1
92
1
93
1
72
2
10
1092.000000
20
1201.000000
40
29.527559
50
0.000000
51
360.000000
73
1
97
0
75
0
76
0
98
1
10
0.0
20
0.0
0
CIRCLE
5
5A6
100
AcDbEntity
8
DRILL
62
255
100
AcDbCircle
39
0.000039
10
1092.000000
20
1201.000000
30
0
40
29.527559
0
HATCH
5
5A7
100
AcDbEntity
8
DRILL
62
255
100
AcDbHatch
10
0.0
20
0.0
30
0.0
210
0.0
220
0.0
230
1.0
2
SOLID
70
1
71
0
91
1
92
1
93
1
72
2
10
1892.000000
20
901.000000
40
29.527559
50
0.000000
51
360.000000
73
1
97
0
75
0
76
0
98
1
10
0.0
20
0.0
0
CIRCLE
5
5A8
100
AcDbEntity
8
DRILL
62
255
100
AcDbCircle
39
0.000039
10
1892.000000
20
901.000000
30
0
40
29.527559
0
HATCH
5
5A9
100
AcDbEntity
8
DRILL
62
255
100
AcDbHatch
10
0.0
20
0.0
30
0.0
210
0.0
220
0.0
230
1.0
2
SOLID
70
1
71
0
91
1
92
1
93
1
72
2
10
1892.000000
20
1701.000000
40
29.527559
50
0.000000
51
360.000000
73
1
97
0
75
0
76
0
98
1
10
0.0
20
0.0
0
CIRCLE
5
5AA
100
AcDbEntity
8
DRILL
62
255
100
AcDbCircle
39
0.000039
10
1892.000000
20
1701.000000
30
0
40
29.527559
0
HATCH
5
5AB
100
AcDbEntity
8
DRILL
62
255
100
AcDbHatch
10
0.0
20
0.0
30
0.0
210
0.0
220
0.0
230
1.0
2
SOLID
70
1
71
0
91
1
92
1
93
1
72
2
10
1092.000000
20
1701.000000
40
29.527559
50
0.000000
51
360.000000
73
1
97
0
75
0
76
0
98
1
10
0.0
20
0.0
0
CIRCLE
5
5AC
100
AcDbEntity
8
DRILL
62
255
100
AcDbCircle
39
0.000039
10
1092.000000
20
1701.000000
30
0
40
29.527559
0
HATCH
5
5AD
100
AcDbEntity
8
DRILL
62
255
100
AcDbHatch
10
0.0
20
0.0
30
0.0
210
0.0
220
0.0
230
1.0
2
SOLID
70
1
71
0
91
1
92
1
93
1
72
2
10
611.000000
20
1486.000000
40
19.685039
50
0.000000
51
360.000000
73
1
97
0
75
0
76
0
98
1
10
0.0
20
0.0
0
CIRCLE
5
5AE
100
AcDbEntity
8
DRILL
62
255
100
AcDbCircle
39
0.000039
10
611.000000
20
1486.000000
30
0
40
19.685039
0
HATCH
5
5AF
100
AcDbEntity
8
DRILL
62
255
100
AcDbHatch
10
0.0
20
0.0
30
0.0
210
0.0
220
0.0
230
1.0
2
SOLID
70
1
71
0
91
1
92
1
93
1
72
2
10
611.000000
20
1682.850394
40
19.685039
50
0.000000
51
360.000000
73
1
97
0
75
0
76
0
98
1
10
0.0
20
0.0
0
CIRCLE
5
5B0
100
AcDbEntity
8
DRILL
62
255
100
AcDbCircle
39
0.000039
10
611.000000
20
1682.850394
30
0
40
19.685039
0
HATCH
5
5B1
100
AcDbEntity
8
DRILL
62
255
100
AcDbHatch
10
0.0
20
0.0
30
0.0
210
0.0
220
0.0
230
1.0
2
SOLID
70
1
71
0
91
1
92
1
93
1
72
2
10
2358.000000
20
1504.000000
40
19.685039
50
0.000000
51
360.000000
73
1
97
0
75
0
76
0
98
1
10
0.0
20
0.0
0
CIRCLE
5
5B2
100
AcDbEntity
8
DRILL
62
255
100
AcDbCircle
39
0.000039
10
2358.000000
20
1504.000000
30
0
40
19.685039
0
HATCH
5
5B3
100
AcDbEntity
8
DRILL
62
255
100
AcDbHatch
10
0.0
20
0.0
30
0.0
210
0.0
220
0.0
230
1.0
2
SOLID
70
1
71
0
91
1
92
1
93
1
72
2
10
2358.000000
20
1700.850394
40
19.685039
50
0.000000
51
360.000000
73
1
97
0
75
0
76
0
98
1
10
0.0
20
0.0
0
CIRCLE
5
5B4
100
AcDbEntity
8
DRILL
62
255
100
AcDbCircle
39
0.000039
10
2358.000000
20
1700.850394
30
0
40
19.685039
0
HATCH
5
5B5
100
AcDbEntity
8
DRILL
62
255
100
AcDbHatch
10
0.0
20
0.0
30
0.0
210
0.0
220
0.0
230
1.0
2
SOLID
70
1
71
0
91
1
92
1
93
1
72
2
10
214.409449
20
822.834646
40
49.212598
50
0.000000
51
360.000000
73
1
97
0
75
0
76
0
98
1
10
0.0
20
0.0
0
CIRCLE
5
5B6
100
AcDbEntity
8
DRILL
62
255
100
AcDbCircle
39
0.000039
10
214.409449
20
822.834646
30
0
40
49.212598
0
HATCH
5
5B7
100
AcDbEntity
8
DRILL
62
255
100
AcDbHatch
10
0.0
20
0.0
30
0.0
210
0.0
220
0.0
230
1.0
2
SOLID
70
1
71
0
91
1
92
1
93
1
72
2
10
214.409449
20
1177.165354
40
49.212598
50
0.000000
51
360.000000
73
1
97
0
75
0
76
0
98
1
10
0.0
20
0.0
0
CIRCLE
5
5B8
100
AcDbEntity
8
DRILL
62
255
100
AcDbCircle
39
0.000039
10
214.409449
20
1177.165354
30
0
40
49.212598
0
HATCH
5
5B9
100
AcDbEntity
8
DRILL
62
255
100
AcDbHatch
10
0.0
20
0.0
30
0.0
210
0.0
220
0.0
230
1.0
2
SOLID
70
1
71
0
91
1
92
1
93
1
72
2
10
135.669291
20
1000.000000
40
31.496063
50
0.000000
51
360.000000
73
1
97
0
75
0
76
0
98
1
10
0.0
20
0.0
0
CIRCLE
5
5BA
100
AcDbEntity
8
DRILL
62
255
100
AcDbCircle
39
0.000039
10
135.669291
20
1000.000000
30
0
40
31.496063
0
HATCH
5
5BB
100
AcDbEntity
8
DRILL
62
255
100
AcDbHatch
10
0.0
20
0.0
30
0.0
210
0.0
220
0.0
230
1.0
2
SOLID
70
1
71
0
91
1
92
1
93
1
72
2
10
253.779528
20
1000.000000
40
45.275591
50
0.000000
51
360.000000
73
1
97
0
75
0
76
0
98
1
10
0.0
20
0.0
0
CIRCLE
5
5BC
100
AcDbEntity
8
DRILL
62
255
100
AcDbCircle
39
0.000039
10
253.779528
20
1000.000000
30
0
40
45.275591
0
HATCH
5
5BD
100
AcDbEntity
8
DRILL
62
255
100
AcDbHatch
10
0.0
20
0.0
30
0.0
210
0.0
220
0.0
230
1.0
2
SOLID
70
1
71
0
91
1
92
1
93
1
72
2
10
490.000000
20
1000.000000
40
59.055118
50
0.000000
51
360.000000
73
1
97
0
75
0
76
0
98
1
10
0.0
20
0.0
0
CIRCLE
5
5BE
100
AcDbEntity
8
DRILL
62
255
100
AcDbCircle
39
0.000039
10
490.000000
20
1000.000000
30
0
40
59.055118
0
ENDSEC
0
SECTION
2
OBJECTS
0
DICTIONARY
5
5BF
100
AcDbDictionary
3
ACAD_GROUP
350
5C0
3
ACAD_LAYOUT
350
5C1
3
ACAD_MLINESTYLE
350
5C2
0
DICTIONARY
5
5C0
100
AcDbDictionary
0
DICTIONARY
5
5C1
100
AcDbDictionary
0
DICTIONARY
5
5C2
100
AcDbDictionary
3
STANDARD
350
5C3
0
MLINESTYLE
5
5C3
100
AcDbMlineStyle
2
Standard
70
0
3

62
256
51
90.0
52
90.0
71
2
49
0.5
62
256
6
BYLAYER
49
-0.5
62
256
6
BYLAYER
0
ENDSEC
0
EOF
