G04 Generated by Ultiboard 14.1 *
%FSLAX24Y24*%
%MOIN*%

%ADD10C,0.0001*%
%ADD11C,0.1250*%
%ADD12C,0.0394*%
%ADD13C,0.0392*%
%ADD14C,0.0350*%
%ADD15C,0.1280*%
%ADD16C,0.0354*%


G04 ColorRGB 000000 for the following layer *
%LNDrill-Copper Top-Copper Bottom*%
%LPD*%
G54D11*
X4380Y29150D03*
X23920Y29150D03*
G54D12*
X22150Y2380D03*
X21150Y2380D03*
X20150Y2380D03*
X19150Y2380D03*
X18150Y2380D03*
X17150Y2380D03*
X16150Y2380D03*
X15150Y2380D03*
X14150Y2380D03*
X13150Y2380D03*
X12150Y2380D03*
X11150Y2380D03*
X10150Y2380D03*
X9150Y2380D03*
X8150Y2380D03*
X7150Y2380D03*
X6150Y2380D03*
X22150Y1380D03*
X21150Y1380D03*
X20150Y1380D03*
X19150Y1380D03*
X18150Y1380D03*
X17150Y1380D03*
X16150Y1380D03*
X15150Y1380D03*
X14150Y1380D03*
X13150Y1380D03*
X12150Y1380D03*
X11150Y1380D03*
X10150Y1380D03*
X9150Y1380D03*
X8150Y1380D03*
X7150Y1380D03*
X6150Y1380D03*
X10650Y16130D03*
X10650Y15130D03*
X17650Y15130D03*
X10650Y14130D03*
X17650Y14130D03*
X10650Y13130D03*
X17650Y13130D03*
X10650Y12130D03*
X17650Y12130D03*
X10650Y11130D03*
X1970Y14100D03*
X7970Y19100D03*
X1970Y22100D03*
X1970Y21100D03*
X7970Y21100D03*
X1970Y19100D03*
X7970Y16100D03*
X7970Y15100D03*
X7970Y22100D03*
X1970Y20100D03*
X7970Y20100D03*
X1970Y18100D03*
X7970Y18100D03*
X1970Y17100D03*
X7970Y17100D03*
X1970Y16100D03*
X1970Y15100D03*
X7970Y14100D03*
X1970Y13100D03*
X7970Y13100D03*
X1970Y12100D03*
X7970Y12100D03*
X1970Y11100D03*
X7970Y11100D03*
X1970Y10100D03*
X7970Y10100D03*
X1970Y9100D03*
X7970Y9100D03*
X1970Y8100D03*
X7970Y8100D03*
G54D13*
X19550Y25894D03*
G54D14*
X20550Y25894D03*
X21440Y12960D03*
X22440Y12960D03*
X23440Y12960D03*
X24440Y12960D03*
X21940Y13960D03*
X22940Y13960D03*
X23940Y13960D03*
X24940Y13960D03*
G54D15*
X25440Y16460D03*
X20940Y16460D03*
G54D16*
X16709Y22170D03*
X11591Y22170D03*
X16709Y23960D03*
X11591Y23960D03*
X11591Y25900D03*
X16709Y25900D03*

M02*
