M48
INCH,TZ
VER,1
FMAT,2
DETECT,ON
ATC,ON
T1C0.1250
T2C0.0394
T3C0.0392
T4C0.0350
T5C0.1280
T6C0.0354
%
T1
X4380Y29150
X23920
T2
X22150Y2380
X21150
X20150
X19150
X18150
X17150
X16150
X15150
X14150
X13150
X12150
X11150
X10150
X9150
X8150
X7150
X6150
X22150Y1380
X21150
X20150
X19150
X18150
X17150
X16150
X15150
X14150
X13150
X12150
X11150
X10150
X9150
X8150
X7150
X6150
X10650Y16130
Y15130
X17650
X10650Y14130
X17650
X10650Y13130
X17650
X10650Y12130
X17650
X10650Y11130
X1970Y14100
X7970Y19100
X1970Y22100
Y21100
X7970
X1970Y19100
X7970Y16100
Y15100
Y22100
X1970Y20100
X7970
X1970Y18100
X7970
X1970Y17100
X7970
X1970Y16100
Y15100
X7970Y14100
X1970Y13100
X7970
X1970Y12100
X7970
X1970Y11100
X7970
X1970Y10100
X7970
X1970Y9100
X7970
X1970Y8100
X7970
T3
X19550Y25894
T4
X20550Y25894
X21440Y12960
X22440
X23440
X24440
X21940Y13960
X22940
X23940
X24940
T5
X25440Y16460
X20940
T6
X16709Y22170
X11591
X16709Y23960
X11591
Y25900
X16709
M30
