G04 Generated by Ultiboard 14.1 *
%FSLAX24Y24*%
%MOIN*%

%ADD10C,0.0001*%
%ADD11C,0.0061*%
%ADD12C,0.0001*%
%ADD13C,0.0080*%


G04 ColorRGB FF14FF for the following layer *
%LNSilkscreen Bottom*%
%LPD*%
G54D10*
G54D11*
X22172Y3662D02*
X22093Y3741D01*
X22093Y3347D01*
X22211Y3347D02*
X21976Y3347D01*
X14511Y4126D02*
X14432Y4047D01*
X14354Y4047D01*
X14276Y4126D01*
X14276Y4441D01*
X14119Y4362D02*
X14040Y4441D01*
X14040Y4047D01*
X14158Y4047D02*
X13923Y4047D01*
X6372Y3701D02*
X6332Y3741D01*
X6254Y3741D01*
X6176Y3662D01*
X6176Y3583D01*
X6215Y3544D01*
X6176Y3504D01*
X6176Y3426D01*
X6254Y3347D01*
X6332Y3347D01*
X6372Y3386D01*
X6332Y3544D02*
X6215Y3544D01*
X6019Y3701D02*
X5980Y3741D01*
X5901Y3741D01*
X5823Y3662D01*
X5823Y3583D01*
X5862Y3544D01*
X5823Y3504D01*
X5823Y3426D01*
X5901Y3347D01*
X5980Y3347D01*
X6019Y3386D01*
X5980Y3544D02*
X5862Y3544D01*
G54D12*
G36*
X13422Y3047D02*
X13422Y3480D01*
X14878Y3480D01*
X14878Y3047D01*
X13422Y3047D01*
G37*
G54D13*
X23595Y3061D02*
X4705Y3061D01*
X4705Y699D01*
X23595Y699D01*
X23595Y3061D01*

M02*
